<?xml version="1.0" encoding="UTF-8" standalone="no"?>
<!-- Created with Inkscape (http://www.inkscape.org/) -->

<svg
   width="748.76318"
   height="247.47374"
   viewBox="0 0 198.11026 65.477426"
   version="1.1"
   id="svg921"
   inkscape:version="1.1 (c68e22c387, 2021-05-23)"
   sodipodi:docname="Logo_Sykno.svg"
   inkscape:export-filename="C:\Users\Fabian Michler\Desktop\Arbeit\Sykno\Projekte\Vibrad_pydisplay\resources\Logo_Sykno.png"
   inkscape:export-xdpi="96"
   inkscape:export-ydpi="96"
   xmlns:inkscape="http://www.inkscape.org/namespaces/inkscape"
   xmlns:sodipodi="http://sodipodi.sourceforge.net/DTD/sodipodi-0.dtd"
   xmlns="http://www.w3.org/2000/svg"
   xmlns:svg="http://www.w3.org/2000/svg"
   xmlns:rdf="http://www.w3.org/1999/02/22-rdf-syntax-ns#"
   xmlns:cc="http://creativecommons.org/ns#"
   xmlns:dc="http://purl.org/dc/elements/1.1/">
  <defs
     id="defs915" />
  <sodipodi:namedview
     id="base"
     pagecolor="#ffffff"
     bordercolor="#666666"
     borderopacity="1.0"
     inkscape:pageopacity="0.0"
     inkscape:pageshadow="2"
     inkscape:zoom="1"
     inkscape:cx="385.5"
     inkscape:cy="137.5"
     inkscape:document-units="mm"
     inkscape:current-layer="layer1"
     showgrid="false"
     fit-margin-top="0"
     fit-margin-left="0"
     fit-margin-right="0"
     fit-margin-bottom="0"
     inkscape:window-width="1920"
     inkscape:window-height="1001"
     inkscape:window-x="-9"
     inkscape:window-y="-9"
     inkscape:window-maximized="1"
     units="px"
     inkscape:pagecheckerboard="0" />
  <metadata
     id="metadata918">
    <rdf:RDF>
      <cc:Work
         rdf:about="">
        <dc:format>image/svg+xml</dc:format>
        <dc:type
           rdf:resource="http://purl.org/dc/dcmitype/StillImage" />
      </cc:Work>
    </rdf:RDF>
  </metadata>
  <g
     inkscape:label="Ebene 1"
     inkscape:groupmode="layer"
     id="layer1"
     transform="translate(73.032128,-82.177083)">
    <g
       aria-label="Sykn"
       style="font-style:normal;font-variant:normal;font-weight:normal;font-stretch:normal;font-size:12.0244px;line-height:1.25;font-family:Calibri;-inkscape-font-specification:Calibri;letter-spacing:0px;word-spacing:0px;fill:#848484;fill-opacity:1;stroke:none;stroke-width:0.751527"
       id="text4487-8-8-7-0-7-57"
       transform="matrix(5,0,0,5,-104.09201,-459.66319)">
      <path
         d="m 8.7781923,116.01846 q -0.573165,-0.1954 -1.0421181,-0.3908 -0.4689531,-0.20842 -0.8076415,-0.495 -0.3386884,-0.28659 -0.5340855,-0.67738 -0.1823707,-0.40382 -0.1823707,-0.97699 0,-1.10725 0.846721,-1.7716 0.8597474,-0.66435 2.3968715,-0.66435 0.560138,0 1.042118,0.0782 0.48198,0.0782 0.820668,0.2475 0.351715,0.15632 0.547112,0.41685 0.195397,0.2475 0.195397,0.58619 0,0.33869 -0.156318,0.58619 -0.156317,0.23448 -0.377767,0.40383 -0.286583,-0.18238 -0.768562,-0.31264 -0.48198,-0.14329 -1.0551449,-0.14329 -0.5861914,0 -0.8597474,0.16934 -0.273556,0.15632 -0.273556,0.40382 0,0.1954 0.1693442,0.32567 0.1693441,0.11723 0.5080325,0.22145 l 0.6904032,0.22145 q 1.2244884,0.39079 1.8758124,1.00303 0.66435,0.59922 0.66435,1.64134 0,1.10725 -0.872773,1.79765 -0.872774,0.67738 -2.5662162,0.67738 -0.5992179,0 -1.1202769,-0.10421 -0.5080326,-0.0912 -0.8988269,-0.27356 -0.3777678,-0.19539 -0.5992179,-0.46895 -0.2084236,-0.28658 -0.2084236,-0.65132 0,-0.37777 0.2214501,-0.6383 0.2214501,-0.27356 0.4819796,-0.41685 0.3647414,0.28658 0.8858004,0.49501 0.5340855,0.20842 1.1593563,0.20842 0.6382974,0 0.8988269,-0.1954 0.2605292,-0.19539 0.2605292,-0.45592 0,-0.26053 -0.2084233,-0.3908 -0.2084236,-0.14329 -0.5861914,-0.27355 z"
         style="font-style:normal;font-variant:normal;font-weight:normal;font-stretch:normal;font-size:13.0265px;font-family:'Baloo Thambi';-inkscape-font-specification:'Baloo Thambi';fill:#848484;fill-opacity:1;stroke-width:0.751527"
         id="path818"
         inkscape:connector-curvature="0" />
      <path
         d="m 14.278622,117.54255 q -0.143292,-0.32566 -0.312636,-0.72948 -0.156317,-0.40382 -0.338688,-0.92488 -0.169344,-0.52106 -0.364741,-1.18541 -0.182371,-0.67737 -0.390795,-1.55015 0.182371,-0.18237 0.48198,-0.31263 0.312635,-0.1433 0.677377,-0.1433 0.455926,0 0.755535,0.1954 0.299609,0.18237 0.4429,0.70343 l 1.029092,3.58228 h 0.05211 q 0.156318,-0.4429 0.299609,-0.96396 0.156318,-0.52106 0.299609,-1.06817 0.143291,-0.56014 0.260529,-1.10725 0.130265,-0.56014 0.22145,-1.09422 0.468954,-0.24751 1.029092,-0.24751 0.455927,0 0.755536,0.1954 0.299609,0.1954 0.299609,0.67738 0,0.35171 -0.09119,0.82067 -0.09119,0.45592 -0.247503,0.97698 -0.143291,0.52106 -0.351715,1.0812 -0.195397,0.54711 -0.416847,1.0812 -0.22145,0.53408 -0.455927,1.01606 -0.234476,0.46896 -0.455926,0.84672 -0.364742,0.6383 -0.677377,1.04212 -0.312635,0.40382 -0.599218,0.62527 -0.286582,0.23448 -0.573165,0.31264 -0.286582,0.0912 -0.599218,0.0912 -0.547112,0 -0.8858,-0.32566 -0.338688,-0.32566 -0.403821,-0.84672 0.416847,-0.32566 0.833695,-0.72948 0.416847,-0.3908 0.755535,-0.80764 -0.22145,-0.0651 -0.481979,-0.29961 -0.247503,-0.24751 -0.547112,-0.91186 z"
         style="font-style:normal;font-variant:normal;font-weight:normal;font-stretch:normal;font-size:13.0265px;font-family:'Baloo Thambi';-inkscape-font-specification:'Baloo Thambi';fill:#848484;fill-opacity:1;stroke-width:0.751527"
         id="path820"
         inkscape:connector-curvature="0" />
      <path
         d="m 26.650925,118.01151 q -0.06513,0.61224 -0.364741,0.9379 -0.286583,0.32567 -0.846721,0.32567 -0.416848,0 -0.742509,-0.1954 -0.325662,-0.20843 -0.70343,-0.69041 l -1.289621,-1.61528 v 2.37082 q -0.143292,0.026 -0.429874,0.0651 -0.273556,0.0521 -0.560138,0.0521 -0.286583,0 -0.521059,-0.0391 -0.221451,-0.0391 -0.377768,-0.15632 -0.156318,-0.11724 -0.247503,-0.31263 -0.07816,-0.20843 -0.07816,-0.53409 v -7.54233 q 0.143291,-0.0391 0.416847,-0.0782 0.286583,-0.0521 0.573165,-0.0521 0.286582,0 0.508033,0.0391 0.234476,0.0391 0.390794,0.15631 0.156318,0.11724 0.234476,0.32567 0.09119,0.19539 0.09119,0.52105 v 3.43899 l 2.240554,-2.29266 q 0.677376,0 1.081197,0.29961 0.416847,0.29961 0.416847,0.75554 0,0.1954 -0.06513,0.36474 -0.06513,0.15632 -0.208424,0.32566 -0.130264,0.16935 -0.351715,0.36474 -0.208423,0.18237 -0.495006,0.42988 l -0.755535,0.65132 z"
         style="font-style:normal;font-variant:normal;font-weight:normal;font-stretch:normal;font-size:13.0265px;font-family:'Baloo Thambi';-inkscape-font-specification:'Baloo Thambi';fill:#848484;fill-opacity:1;stroke-width:0.751527"
         id="path822"
         inkscape:connector-curvature="0" />
      <path
         d="m 31.701126,115.14568 q 0,-0.40382 -0.234477,-0.58619 -0.22145,-0.1954 -0.612244,-0.1954 -0.26053,0 -0.521059,0.0651 -0.247503,0.0651 -0.429874,0.19539 v 4.52019 q -0.130265,0.0391 -0.416847,0.0782 -0.273556,0.0391 -0.573165,0.0391 -0.286583,0 -0.521059,-0.0391 -0.22145,-0.0391 -0.377768,-0.15632 -0.156318,-0.11724 -0.247503,-0.31263 -0.07816,-0.20843 -0.07816,-0.53409 v -3.90794 q 0,-0.35172 0.143291,-0.57317 0.156318,-0.22145 0.416848,-0.40382 0.4429,-0.31263 1.10725,-0.50803 0.677377,-0.1954 1.498045,-0.1954 1.471991,0 2.266606,0.65133 0.794616,0.63829 0.794616,1.78462 v 4.07729 q -0.130265,0.0391 -0.416848,0.0782 -0.273556,0.0391 -0.573165,0.0391 -0.286582,0 -0.521059,-0.0391 -0.22145,-0.0391 -0.377767,-0.15632 -0.156318,-0.11724 -0.247504,-0.31263 -0.07816,-0.20843 -0.07816,-0.53409 z"
         style="font-style:normal;font-variant:normal;font-weight:normal;font-stretch:normal;font-size:13.0265px;font-family:'Baloo Thambi';-inkscape-font-specification:'Baloo Thambi';fill:#848484;fill-opacity:1;stroke-width:0.751527"
         id="path824"
         inkscape:connector-curvature="0" />
    </g>
    <path
       style="fill:none;stroke:#81c79f;stroke-width:5.28245;stroke-linecap:round;stroke-linejoin:miter;stroke-miterlimit:4;stroke-dasharray:none;stroke-opacity:1"
       d="m 75.152879,99.946612 c 0,0 13.99999,-11.85645 29.135201,2.322348 15.13521,14.1787 3.32713,29.4851 3.32713,29.4851"
       id="path4525-8-8-0-2-8-0-6-3-5"
       inkscape:connector-curvature="0"
       sodipodi:nodetypes="czc" />
    <path
       style="fill:none;stroke:#c8e6d8;stroke-width:4.01466;stroke-linecap:round;stroke-linejoin:miter;stroke-miterlimit:4;stroke-dasharray:none;stroke-opacity:1"
       d="m 73.293324,88.135612 c 0,0 20.764035,-12.10595 39.656016,6.035 18.89212,18.140798 5.56673,40.818548 5.56673,40.818548"
       id="path4525-9-6-0-1-5-0-4-2-0-6"
       inkscape:connector-curvature="0"
       sodipodi:nodetypes="czc" />
    <path
       style="fill:#848484;fill-opacity:1;stroke:none;stroke-width:1.67238px;stroke-linecap:butt;stroke-linejoin:miter;stroke-opacity:1"
       d="m 76.268814,110.52241 5.177095,5.0481 c 0,0 -2.69669,2.825 -2.6345,5.00265 0.0612,2.1763 1.03291,4.2561 2.65711,5.67585 1.6247,1.41925 3.52435,2.71495 5.77545,2.906 2.251105,0.191 5.04169,-2.83105 5.04169,-2.83105 l 5.062745,5.01465 c 0,0 -3.998755,4.09945 -6.81848,4.803 -2.82262,0.7006 -6.129155,0.7006 -9.33576,-0.9219 -3.206505,-1.6218 -7.45938,-5.6777 -8.95749,-8.84185 -1.497715,-3.1647 -1.2977,-6.13775 -0.55871,-8.88645 1.832765,-4.30665 3.255055,-5.7586 4.59055,-6.96845 z"
       id="path4493-1-13-6-3-8-4-0"
       inkscape:connector-curvature="0"
       sodipodi:nodetypes="cczzzcczzzccc" />
    <path
       style="fill:#4caf68;fill-opacity:1;stroke:none;stroke-width:1.67238px;stroke-linecap:butt;stroke-linejoin:miter;stroke-opacity:1"
       d="m 77.369234,109.14516 5.104225,5.1213 c 0,0 2.81347,-2.7094 4.998735,-2.6641 2.183845,0.045 4.277925,0.99645 5.71465,2.6049 1.436295,1.6084 2.7508,3.49185 2.9597,5.73405 0.2086,2.2422 -2.80158,5.0468 -2.80158,5.0468 l 5.06973,5.0075 c 0,0 4.082216,-4.017 4.766446,-6.8327 0.68139,-2.81875 0.65536,-6.1143 -0.99677,-9.2979 -1.65161,-3.18345 -5.753311,-7.3913 -8.939286,-8.8602 -3.186385,-1.4685 -6.16759,-1.2464 -8.9196,-0.488 -4.306595,1.85965 -5.752455,3.28845 -6.955975,4.6288 z"
       id="path4493-1-13-6-3-8-4-0-4"
       inkscape:connector-curvature="0"
       sodipodi:nodetypes="cczzzcczzzccc" />
  </g>
</svg>
